<?xml version="1.0" ?><svg id="Outline" viewBox="0 0 512 512" xmlns="http://www.w3.org/2000/svg"><defs><style>.cls-1{fill:#262626;}</style></defs><path class="cls-1" d="M256,215.94A40.06,40.06,0,1,0,296.06,256,40.1,40.1,0,0,0,256,215.94Zm0,57.44A17.38,17.38,0,1,1,273.38,256,17.4,17.4,0,0,1,256,273.38Z"/><path class="cls-1" d="M256,165.64a40.06,40.06,0,1,0-40.06-40.06A40.1,40.1,0,0,0,256,165.64Zm0-57.44a17.38,17.38,0,1,1-17.38,17.38A17.4,17.4,0,0,1,256,108.2Z"/><path class="cls-1" d="M256,345.88a40.06,40.06,0,1,0,40.06,40.06A40.1,40.1,0,0,0,256,345.88Zm0,57.44a17.38,17.38,0,1,1,17.38-17.38A17.4,17.4,0,0,1,256,403.32Z"/></svg>